<mxfile host="app.diagrams.net" modified="2023-05-10T10:01:01.398Z" agent="Mozilla/5.0 (Windows NT 10.0; Win64; x64) AppleWebKit/537.36 (KHTML, like Gecko) Chrome/113.0.0.0 Safari/537.36" etag="NY3DBUvsuJDDt5FchrGb" version="21.2.9" type="github" pages="2">
  <diagram id="QJjx0-fPxzvcmYibJWj1" name="Page-1">
    <mxGraphModel dx="934" dy="439" grid="1" gridSize="10" guides="1" tooltips="1" connect="1" arrows="1" fold="1" page="1" pageScale="1" pageWidth="827" pageHeight="583" math="0" shadow="0">
      <root>
        <mxCell id="0" />
        <mxCell id="1" parent="0" />
        <mxCell id="4f-DMQIj-ya-iA7LCkDa-1" value="" style="shape=cube;whiteSpace=wrap;html=1;boundedLbl=1;backgroundOutline=1;darkOpacity=0.05;darkOpacity2=0.1;size=110;direction=east;flipH=1;fillColor=#f5f5f5;strokeColor=#666666;fontColor=#333333;" parent="1" vertex="1">
          <mxGeometry x="71" y="96" width="120" height="420" as="geometry" />
        </mxCell>
        <mxCell id="4f-DMQIj-ya-iA7LCkDa-2" value="" style="shape=cube;whiteSpace=wrap;html=1;boundedLbl=1;backgroundOutline=1;darkOpacity=0.05;darkOpacity2=0.1;size=110;direction=east;flipH=1;fillColor=#f5f5f5;strokeColor=#666666;fontColor=#333333;" parent="1" vertex="1">
          <mxGeometry x="91" y="96" width="120" height="420" as="geometry" />
        </mxCell>
        <mxCell id="4f-DMQIj-ya-iA7LCkDa-3" value="" style="shape=cube;whiteSpace=wrap;html=1;boundedLbl=1;backgroundOutline=1;darkOpacity=0.05;darkOpacity2=0.1;size=70;direction=east;flipH=1;fillColor=#e1d5e7;strokeColor=#9673a6;" parent="1" vertex="1">
          <mxGeometry x="121" y="186" width="80" height="240" as="geometry" />
        </mxCell>
        <mxCell id="4f-DMQIj-ya-iA7LCkDa-4" value="" style="shape=cube;whiteSpace=wrap;html=1;boundedLbl=1;backgroundOutline=1;darkOpacity=0.05;darkOpacity2=0.1;size=70;direction=east;flipH=1;fillColor=#f5f5f5;strokeColor=#666666;fontColor=#333333;" parent="1" vertex="1">
          <mxGeometry x="136" y="186" width="80" height="240" as="geometry" />
        </mxCell>
        <mxCell id="4f-DMQIj-ya-iA7LCkDa-5" value="" style="shape=cube;whiteSpace=wrap;html=1;boundedLbl=1;backgroundOutline=1;darkOpacity=0.05;darkOpacity2=0.1;size=70;direction=east;flipH=1;fillColor=#f5f5f5;strokeColor=#666666;fontColor=#333333;" parent="1" vertex="1">
          <mxGeometry x="155" y="186" width="80" height="240" as="geometry" />
        </mxCell>
        <mxCell id="4f-DMQIj-ya-iA7LCkDa-6" value="" style="shape=cube;whiteSpace=wrap;html=1;boundedLbl=1;backgroundOutline=1;darkOpacity=0.05;darkOpacity2=0.1;size=40;direction=east;flipH=1;fillColor=#e1d5e7;strokeColor=#9673a6;" parent="1" vertex="1">
          <mxGeometry x="191" y="232.25" width="50" height="133.75" as="geometry" />
        </mxCell>
        <mxCell id="4f-DMQIj-ya-iA7LCkDa-7" value="" style="shape=cube;whiteSpace=wrap;html=1;boundedLbl=1;backgroundOutline=1;darkOpacity=0.05;darkOpacity2=0.1;size=40;direction=east;flipH=1;fillColor=#f5f5f5;strokeColor=#666666;fontColor=#333333;" parent="1" vertex="1">
          <mxGeometry x="208" y="232.25" width="50" height="133.75" as="geometry" />
        </mxCell>
        <mxCell id="4f-DMQIj-ya-iA7LCkDa-8" value="" style="shape=cube;whiteSpace=wrap;html=1;boundedLbl=1;backgroundOutline=1;darkOpacity=0.05;darkOpacity2=0.1;size=40;direction=east;flipH=1;fillColor=#f5f5f5;strokeColor=#666666;fontColor=#333333;" parent="1" vertex="1">
          <mxGeometry x="225" y="232.25" width="50" height="133.75" as="geometry" />
        </mxCell>
        <mxCell id="4f-DMQIj-ya-iA7LCkDa-9" value="" style="shape=cube;whiteSpace=wrap;html=1;boundedLbl=1;backgroundOutline=1;darkOpacity=0.05;darkOpacity2=0.1;size=40;direction=east;flipH=1;fillColor=#f5f5f5;strokeColor=#666666;fontColor=#333333;" parent="1" vertex="1">
          <mxGeometry x="242" y="232.25" width="50" height="133.75" as="geometry" />
        </mxCell>
        <mxCell id="4f-DMQIj-ya-iA7LCkDa-10" value="" style="shape=cube;whiteSpace=wrap;html=1;boundedLbl=1;backgroundOutline=1;darkOpacity=0.05;darkOpacity2=0.1;size=20;direction=east;flipH=1;fillColor=#e1d5e7;strokeColor=#9673a6;" parent="1" vertex="1">
          <mxGeometry x="275" y="262.56" width="40" height="73.13" as="geometry" />
        </mxCell>
        <mxCell id="4f-DMQIj-ya-iA7LCkDa-11" value="" style="shape=cube;whiteSpace=wrap;html=1;boundedLbl=1;backgroundOutline=1;darkOpacity=0.05;darkOpacity2=0.1;size=20;direction=east;flipH=1;fillColor=#f5f5f5;strokeColor=#666666;fontColor=#333333;" parent="1" vertex="1">
          <mxGeometry x="301" y="262.56" width="40" height="73.13" as="geometry" />
        </mxCell>
        <mxCell id="4f-DMQIj-ya-iA7LCkDa-12" value="" style="shape=cube;whiteSpace=wrap;html=1;boundedLbl=1;backgroundOutline=1;darkOpacity=0.05;darkOpacity2=0.1;size=20;direction=east;flipH=1;fillColor=#f5f5f5;strokeColor=#666666;fontColor=#333333;" parent="1" vertex="1">
          <mxGeometry x="326" y="262.56" width="40" height="73.13" as="geometry" />
        </mxCell>
        <mxCell id="4f-DMQIj-ya-iA7LCkDa-13" value="" style="shape=cube;whiteSpace=wrap;html=1;boundedLbl=1;backgroundOutline=1;darkOpacity=0.05;darkOpacity2=0.1;size=20;direction=east;flipH=1;fillColor=#f5f5f5;strokeColor=#666666;fontColor=#333333;" parent="1" vertex="1">
          <mxGeometry x="351" y="262.56" width="40" height="73.13" as="geometry" />
        </mxCell>
        <mxCell id="4f-DMQIj-ya-iA7LCkDa-15" value="" style="shape=cube;whiteSpace=wrap;html=1;boundedLbl=1;backgroundOutline=1;darkOpacity=0.05;darkOpacity2=0.1;size=10;direction=east;flipH=1;fillColor=#f5f5f5;strokeColor=#666666;fontColor=#333333;" parent="1" vertex="1">
          <mxGeometry x="381" y="279.13" width="35" height="40" as="geometry" />
        </mxCell>
        <mxCell id="4f-DMQIj-ya-iA7LCkDa-16" value="" style="shape=cube;whiteSpace=wrap;html=1;boundedLbl=1;backgroundOutline=1;darkOpacity=0.05;darkOpacity2=0.1;size=10;direction=east;flipH=1;fillColor=#f5f5f5;strokeColor=#666666;fontColor=#333333;" parent="1" vertex="1">
          <mxGeometry x="412" y="279.13" width="35" height="40" as="geometry" />
        </mxCell>
        <mxCell id="4f-DMQIj-ya-iA7LCkDa-19" value="" style="shape=cube;whiteSpace=wrap;html=1;boundedLbl=1;backgroundOutline=1;darkOpacity=0.05;darkOpacity2=0.1;size=7;direction=east;flipH=1;fillColor=#e1d5e7;strokeColor=#9673a6;" parent="1" vertex="1">
          <mxGeometry x="511" y="288.96" width="33" height="20.32" as="geometry" />
        </mxCell>
        <mxCell id="4f-DMQIj-ya-iA7LCkDa-20" value="" style="shape=cube;whiteSpace=wrap;html=1;boundedLbl=1;backgroundOutline=1;darkOpacity=0.05;darkOpacity2=0.1;size=3;direction=east;flipH=1;fillColor=#dae8fc;strokeColor=#6c8ebf;" parent="1" vertex="1">
          <mxGeometry x="546" y="295.12" width="74" height="8" as="geometry" />
        </mxCell>
        <mxCell id="4f-DMQIj-ya-iA7LCkDa-21" value="" style="shape=cube;whiteSpace=wrap;html=1;boundedLbl=1;backgroundOutline=1;darkOpacity=0.05;darkOpacity2=0.1;size=3;direction=east;flipH=1;fillColor=#dae8fc;strokeColor=#6c8ebf;" parent="1" vertex="1">
          <mxGeometry x="622" y="295.13" width="74" height="8" as="geometry" />
        </mxCell>
        <mxCell id="4f-DMQIj-ya-iA7LCkDa-22" value="" style="shape=cube;whiteSpace=wrap;html=1;boundedLbl=1;backgroundOutline=1;darkOpacity=0.05;darkOpacity2=0.1;size=3;direction=east;flipH=1;fillColor=#dae8fc;strokeColor=#6c8ebf;" parent="1" vertex="1">
          <mxGeometry x="698" y="295.13" width="38" height="8" as="geometry" />
        </mxCell>
        <mxCell id="4f-DMQIj-ya-iA7LCkDa-27" value="" style="shape=cube;whiteSpace=wrap;html=1;boundedLbl=1;backgroundOutline=1;darkOpacity=0.05;darkOpacity2=0.1;size=3;direction=east;flipH=1;fillColor=#ffe6cc;strokeColor=#d79b00;" parent="1" vertex="1">
          <mxGeometry x="738" y="295.12" width="38" height="8" as="geometry" />
        </mxCell>
        <mxCell id="4f-DMQIj-ya-iA7LCkDa-29" value="&lt;b&gt;conv1&lt;/b&gt;" style="text;html=1;strokeColor=none;fillColor=none;align=center;verticalAlign=middle;whiteSpace=wrap;rounded=0;" parent="1" vertex="1">
          <mxGeometry x="185" y="60" width="40" height="30" as="geometry" />
        </mxCell>
        <mxCell id="4f-DMQIj-ya-iA7LCkDa-31" value="&lt;b&gt;conv2&lt;/b&gt;" style="text;html=1;strokeColor=none;fillColor=none;align=center;verticalAlign=middle;whiteSpace=wrap;rounded=0;" parent="1" vertex="1">
          <mxGeometry x="216" y="152" width="40" height="30" as="geometry" />
        </mxCell>
        <mxCell id="4f-DMQIj-ya-iA7LCkDa-32" value="&lt;b&gt;conv3&lt;/b&gt;" style="text;html=1;strokeColor=none;fillColor=none;align=center;verticalAlign=middle;whiteSpace=wrap;rounded=0;" parent="1" vertex="1">
          <mxGeometry x="247" y="196" width="40" height="30" as="geometry" />
        </mxCell>
        <mxCell id="4f-DMQIj-ya-iA7LCkDa-33" value="&lt;b&gt;conv4&lt;/b&gt;" style="text;html=1;strokeColor=none;fillColor=none;align=center;verticalAlign=middle;whiteSpace=wrap;rounded=0;" parent="1" vertex="1">
          <mxGeometry x="326" y="232.25" width="40" height="30" as="geometry" />
        </mxCell>
        <mxCell id="4f-DMQIj-ya-iA7LCkDa-34" value="&lt;b&gt;conv5&lt;/b&gt;" style="text;html=1;strokeColor=none;fillColor=none;align=center;verticalAlign=middle;whiteSpace=wrap;rounded=0;" parent="1" vertex="1">
          <mxGeometry x="441" y="246" width="40" height="30" as="geometry" />
        </mxCell>
        <mxCell id="4f-DMQIj-ya-iA7LCkDa-35" value="&lt;b&gt;FC6&lt;/b&gt;" style="text;html=1;strokeColor=none;fillColor=none;align=center;verticalAlign=middle;whiteSpace=wrap;rounded=0;" parent="1" vertex="1">
          <mxGeometry x="563" y="262.56" width="40" height="30" as="geometry" />
        </mxCell>
        <mxCell id="4f-DMQIj-ya-iA7LCkDa-36" value="&lt;b&gt;FC7&lt;/b&gt;" style="text;html=1;strokeColor=none;fillColor=none;align=center;verticalAlign=middle;whiteSpace=wrap;rounded=0;" parent="1" vertex="1">
          <mxGeometry x="639" y="262.56" width="40" height="30" as="geometry" />
        </mxCell>
        <mxCell id="4f-DMQIj-ya-iA7LCkDa-37" value="&lt;b&gt;FC8&lt;/b&gt;" style="text;html=1;strokeColor=none;fillColor=none;align=center;verticalAlign=middle;whiteSpace=wrap;rounded=0;" parent="1" vertex="1">
          <mxGeometry x="698" y="262.56" width="40" height="30" as="geometry" />
        </mxCell>
        <mxCell id="4f-DMQIj-ya-iA7LCkDa-38" value="224 x 224 x 64" style="text;html=1;strokeColor=none;fillColor=none;align=center;verticalAlign=middle;whiteSpace=wrap;rounded=0;" parent="1" vertex="1">
          <mxGeometry x="41" y="516" width="99" height="30" as="geometry" />
        </mxCell>
        <mxCell id="4f-DMQIj-ya-iA7LCkDa-39" value="112 x 112 x 128" style="text;html=1;strokeColor=none;fillColor=none;align=center;verticalAlign=middle;whiteSpace=wrap;rounded=0;" parent="1" vertex="1">
          <mxGeometry x="117" y="426" width="99" height="30" as="geometry" />
        </mxCell>
        <mxCell id="4f-DMQIj-ya-iA7LCkDa-40" value="56 x 56 x 256" style="text;html=1;strokeColor=none;fillColor=none;align=center;verticalAlign=middle;whiteSpace=wrap;rounded=0;" parent="1" vertex="1">
          <mxGeometry x="204" y="365" width="99" height="30" as="geometry" />
        </mxCell>
        <mxCell id="4f-DMQIj-ya-iA7LCkDa-41" value="28 x 28 x 512" style="text;html=1;strokeColor=none;fillColor=none;align=center;verticalAlign=middle;whiteSpace=wrap;rounded=0;" parent="1" vertex="1">
          <mxGeometry x="275" y="332" width="99" height="30" as="geometry" />
        </mxCell>
        <mxCell id="4f-DMQIj-ya-iA7LCkDa-42" value="14 x 14 x 512" style="text;html=1;strokeColor=none;fillColor=none;align=center;verticalAlign=middle;whiteSpace=wrap;rounded=0;" parent="1" vertex="1">
          <mxGeometry x="391" y="317.12" width="99" height="30" as="geometry" />
        </mxCell>
        <mxCell id="4f-DMQIj-ya-iA7LCkDa-43" value="" style="shape=cube;whiteSpace=wrap;html=1;boundedLbl=1;backgroundOutline=1;darkOpacity=0.05;darkOpacity2=0.1;size=10;direction=east;flipH=1;fillColor=#f5f5f5;strokeColor=#666666;fontColor=#333333;" parent="1" vertex="1">
          <mxGeometry x="441" y="279.13" width="35" height="40" as="geometry" />
        </mxCell>
        <mxCell id="4f-DMQIj-ya-iA7LCkDa-44" value="" style="shape=cube;whiteSpace=wrap;html=1;boundedLbl=1;backgroundOutline=1;darkOpacity=0.05;darkOpacity2=0.1;size=10;direction=east;flipH=1;fillColor=#f5f5f5;strokeColor=#666666;fontColor=#333333;" parent="1" vertex="1">
          <mxGeometry x="472" y="279.12" width="35" height="40" as="geometry" />
        </mxCell>
        <mxCell id="4f-DMQIj-ya-iA7LCkDa-46" value="7 x 7 x 512" style="text;html=1;strokeColor=none;fillColor=none;align=center;verticalAlign=middle;whiteSpace=wrap;rounded=0;" parent="1" vertex="1">
          <mxGeometry x="474" y="342.12" width="99" height="23.88" as="geometry" />
        </mxCell>
        <mxCell id="4f-DMQIj-ya-iA7LCkDa-47" value="" style="endArrow=classic;html=1;entryX=0.605;entryY=1.084;entryDx=0;entryDy=0;entryPerimeter=0;" parent="1" source="4f-DMQIj-ya-iA7LCkDa-46" target="4f-DMQIj-ya-iA7LCkDa-19" edge="1">
          <mxGeometry width="50" height="50" relative="1" as="geometry">
            <mxPoint x="527.16" y="347.12" as="sourcePoint" />
            <mxPoint x="528" y="317" as="targetPoint" />
          </mxGeometry>
        </mxCell>
        <mxCell id="4f-DMQIj-ya-iA7LCkDa-48" value="1 x 1 x 4096" style="text;html=1;strokeColor=none;fillColor=none;align=center;verticalAlign=middle;whiteSpace=wrap;rounded=0;" parent="1" vertex="1">
          <mxGeometry x="573" y="303.13" width="99" height="24" as="geometry" />
        </mxCell>
        <mxCell id="4f-DMQIj-ya-iA7LCkDa-49" value="1 x 1 x 1000" style="text;html=1;strokeColor=none;fillColor=none;align=center;verticalAlign=middle;whiteSpace=wrap;rounded=0;" parent="1" vertex="1">
          <mxGeometry x="688" y="303.13" width="99" height="24" as="geometry" />
        </mxCell>
        <mxCell id="4f-DMQIj-ya-iA7LCkDa-50" value="convolutional + ReLU" style="text;html=1;strokeColor=none;fillColor=none;align=left;verticalAlign=middle;whiteSpace=wrap;rounded=0;fontStyle=1" parent="1" vertex="1">
          <mxGeometry x="141" y="452.12" width="44" height="23.88" as="geometry" />
        </mxCell>
        <mxCell id="4f-DMQIj-ya-iA7LCkDa-51" value="max pooling" style="text;html=1;strokeColor=none;fillColor=none;align=left;verticalAlign=middle;whiteSpace=wrap;rounded=0;fontStyle=1" parent="1" vertex="1">
          <mxGeometry x="147" y="172.12" width="53" height="23.88" as="geometry" />
        </mxCell>
        <mxCell id="4f-DMQIj-ya-iA7LCkDa-52" value="fully connected + ReLU" style="text;html=1;strokeColor=none;fillColor=none;align=left;verticalAlign=middle;whiteSpace=wrap;rounded=0;fontStyle=1" parent="1" vertex="1">
          <mxGeometry x="563" y="317.12" width="138" height="23.88" as="geometry" />
        </mxCell>
        <mxCell id="4f-DMQIj-ya-iA7LCkDa-53" value="softmax" style="text;html=1;strokeColor=none;fillColor=none;align=left;verticalAlign=middle;whiteSpace=wrap;rounded=0;fontStyle=1" parent="1" vertex="1">
          <mxGeometry x="740" y="317.12" width="40" height="23.88" as="geometry" />
        </mxCell>
        <mxCell id="Nn645O4KX6ez7UxQb5Z_-6" value="max pooling" style="text;html=1;strokeColor=none;fillColor=none;align=left;verticalAlign=middle;whiteSpace=wrap;rounded=0;fontStyle=1" parent="1" vertex="1">
          <mxGeometry x="190" y="220" height="40" as="geometry" />
        </mxCell>
        <mxCell id="Nn645O4KX6ez7UxQb5Z_-7" value="convolutional + ReLU" style="text;html=1;strokeColor=none;fillColor=none;align=left;verticalAlign=middle;whiteSpace=wrap;rounded=0;fontStyle=1" parent="1" vertex="1">
          <mxGeometry x="214" y="395" width="44" height="23.88" as="geometry" />
        </mxCell>
        <mxCell id="Nn645O4KX6ez7UxQb5Z_-9" value="max pooling" style="text;html=1;strokeColor=none;fillColor=none;align=left;verticalAlign=middle;whiteSpace=wrap;rounded=0;fontStyle=1" parent="1" vertex="1">
          <mxGeometry x="280" y="230" height="40" as="geometry" />
        </mxCell>
        <mxCell id="Nn645O4KX6ez7UxQb5Z_-12" value="convolutional + ReLU" style="text;html=1;strokeColor=none;fillColor=none;align=left;verticalAlign=middle;whiteSpace=wrap;rounded=0;fontStyle=1" parent="1" vertex="1">
          <mxGeometry x="315" y="362" width="44" height="28" as="geometry" />
        </mxCell>
        <mxCell id="Nn645O4KX6ez7UxQb5Z_-13" value="convolutional + ReLU" style="text;html=1;strokeColor=none;fillColor=none;align=left;verticalAlign=middle;whiteSpace=wrap;rounded=0;fontStyle=1" parent="1" vertex="1">
          <mxGeometry x="428" y="337" width="44" height="28" as="geometry" />
        </mxCell>
        <mxCell id="Nn645O4KX6ez7UxQb5Z_-21" value="max pooling" style="text;html=1;strokeColor=none;fillColor=none;align=left;verticalAlign=middle;whiteSpace=wrap;rounded=0;fontStyle=1" parent="1" vertex="1">
          <mxGeometry x="388" y="249.06" width="53" height="23.88" as="geometry" />
        </mxCell>
      </root>
    </mxGraphModel>
  </diagram>
  <diagram id="Bp4wZT2sYllNdJJhVV6K" name="Page-3">
    <mxGraphModel dx="1323" dy="622" grid="1" gridSize="10" guides="1" tooltips="1" connect="1" arrows="1" fold="1" page="1" pageScale="1" pageWidth="850" pageHeight="1100" math="0" shadow="0">
      <root>
        <mxCell id="0" />
        <mxCell id="1" parent="0" />
        <mxCell id="189ZsUDBubX5GjFxtVKN-54" value="" style="rounded=0;whiteSpace=wrap;html=1;" vertex="1" parent="1">
          <mxGeometry x="21" y="80" width="599" height="470" as="geometry" />
        </mxCell>
        <mxCell id="189ZsUDBubX5GjFxtVKN-53" value="" style="rounded=0;whiteSpace=wrap;html=1;" vertex="1" parent="1">
          <mxGeometry x="633" y="190" width="120" height="250" as="geometry" />
        </mxCell>
        <mxCell id="qHnE-Tz-FGaFxfppctav-1" value="" style="shape=cube;whiteSpace=wrap;html=1;boundedLbl=1;backgroundOutline=1;darkOpacity=0.05;darkOpacity2=0.1;size=110;direction=east;flipH=1;fillColor=#f5f5f5;strokeColor=#666666;fontColor=#333333;" vertex="1" parent="1">
          <mxGeometry x="71" y="96" width="120" height="420" as="geometry" />
        </mxCell>
        <mxCell id="qHnE-Tz-FGaFxfppctav-2" value="" style="shape=cube;whiteSpace=wrap;html=1;boundedLbl=1;backgroundOutline=1;darkOpacity=0.05;darkOpacity2=0.1;size=110;direction=east;flipH=1;fillColor=#f5f5f5;strokeColor=#666666;fontColor=#333333;" vertex="1" parent="1">
          <mxGeometry x="91" y="96" width="120" height="420" as="geometry" />
        </mxCell>
        <mxCell id="qHnE-Tz-FGaFxfppctav-3" value="" style="shape=cube;whiteSpace=wrap;html=1;boundedLbl=1;backgroundOutline=1;darkOpacity=0.05;darkOpacity2=0.1;size=70;direction=east;flipH=1;fillColor=#e1d5e7;strokeColor=#9673a6;" vertex="1" parent="1">
          <mxGeometry x="121" y="186" width="80" height="240" as="geometry" />
        </mxCell>
        <mxCell id="qHnE-Tz-FGaFxfppctav-4" value="" style="shape=cube;whiteSpace=wrap;html=1;boundedLbl=1;backgroundOutline=1;darkOpacity=0.05;darkOpacity2=0.1;size=70;direction=east;flipH=1;fillColor=#f5f5f5;strokeColor=#666666;fontColor=#333333;" vertex="1" parent="1">
          <mxGeometry x="136" y="186" width="80" height="240" as="geometry" />
        </mxCell>
        <mxCell id="qHnE-Tz-FGaFxfppctav-5" value="" style="shape=cube;whiteSpace=wrap;html=1;boundedLbl=1;backgroundOutline=1;darkOpacity=0.05;darkOpacity2=0.1;size=70;direction=east;flipH=1;fillColor=#f5f5f5;strokeColor=#666666;fontColor=#333333;" vertex="1" parent="1">
          <mxGeometry x="155" y="186" width="80" height="240" as="geometry" />
        </mxCell>
        <mxCell id="qHnE-Tz-FGaFxfppctav-6" value="" style="shape=cube;whiteSpace=wrap;html=1;boundedLbl=1;backgroundOutline=1;darkOpacity=0.05;darkOpacity2=0.1;size=40;direction=east;flipH=1;fillColor=#e1d5e7;strokeColor=#9673a6;" vertex="1" parent="1">
          <mxGeometry x="191" y="232.25" width="50" height="133.75" as="geometry" />
        </mxCell>
        <mxCell id="qHnE-Tz-FGaFxfppctav-7" value="" style="shape=cube;whiteSpace=wrap;html=1;boundedLbl=1;backgroundOutline=1;darkOpacity=0.05;darkOpacity2=0.1;size=40;direction=east;flipH=1;fillColor=#f5f5f5;strokeColor=#666666;fontColor=#333333;" vertex="1" parent="1">
          <mxGeometry x="208" y="232.25" width="50" height="133.75" as="geometry" />
        </mxCell>
        <mxCell id="qHnE-Tz-FGaFxfppctav-8" value="" style="shape=cube;whiteSpace=wrap;html=1;boundedLbl=1;backgroundOutline=1;darkOpacity=0.05;darkOpacity2=0.1;size=40;direction=east;flipH=1;fillColor=#f5f5f5;strokeColor=#666666;fontColor=#333333;" vertex="1" parent="1">
          <mxGeometry x="225" y="232.25" width="50" height="133.75" as="geometry" />
        </mxCell>
        <mxCell id="qHnE-Tz-FGaFxfppctav-9" value="" style="shape=cube;whiteSpace=wrap;html=1;boundedLbl=1;backgroundOutline=1;darkOpacity=0.05;darkOpacity2=0.1;size=40;direction=east;flipH=1;fillColor=#f5f5f5;strokeColor=#666666;fontColor=#333333;" vertex="1" parent="1">
          <mxGeometry x="242" y="232.25" width="50" height="133.75" as="geometry" />
        </mxCell>
        <mxCell id="qHnE-Tz-FGaFxfppctav-10" value="" style="shape=cube;whiteSpace=wrap;html=1;boundedLbl=1;backgroundOutline=1;darkOpacity=0.05;darkOpacity2=0.1;size=20;direction=east;flipH=1;fillColor=#e1d5e7;strokeColor=#9673a6;" vertex="1" parent="1">
          <mxGeometry x="275" y="262.56" width="40" height="73.13" as="geometry" />
        </mxCell>
        <mxCell id="qHnE-Tz-FGaFxfppctav-11" value="" style="shape=cube;whiteSpace=wrap;html=1;boundedLbl=1;backgroundOutline=1;darkOpacity=0.05;darkOpacity2=0.1;size=20;direction=east;flipH=1;fillColor=#f5f5f5;strokeColor=#666666;fontColor=#333333;" vertex="1" parent="1">
          <mxGeometry x="301" y="262.56" width="40" height="73.13" as="geometry" />
        </mxCell>
        <mxCell id="qHnE-Tz-FGaFxfppctav-12" value="" style="shape=cube;whiteSpace=wrap;html=1;boundedLbl=1;backgroundOutline=1;darkOpacity=0.05;darkOpacity2=0.1;size=20;direction=east;flipH=1;fillColor=#f5f5f5;strokeColor=#666666;fontColor=#333333;" vertex="1" parent="1">
          <mxGeometry x="326" y="262.56" width="40" height="73.13" as="geometry" />
        </mxCell>
        <mxCell id="qHnE-Tz-FGaFxfppctav-13" value="" style="shape=cube;whiteSpace=wrap;html=1;boundedLbl=1;backgroundOutline=1;darkOpacity=0.05;darkOpacity2=0.1;size=20;direction=east;flipH=1;fillColor=#f5f5f5;strokeColor=#666666;fontColor=#333333;" vertex="1" parent="1">
          <mxGeometry x="351" y="262.56" width="40" height="73.13" as="geometry" />
        </mxCell>
        <mxCell id="qHnE-Tz-FGaFxfppctav-14" value="" style="shape=cube;whiteSpace=wrap;html=1;boundedLbl=1;backgroundOutline=1;darkOpacity=0.05;darkOpacity2=0.1;size=10;direction=east;flipH=1;fillColor=#f5f5f5;strokeColor=#666666;fontColor=#333333;" vertex="1" parent="1">
          <mxGeometry x="381" y="279.13" width="35" height="40" as="geometry" />
        </mxCell>
        <mxCell id="qHnE-Tz-FGaFxfppctav-15" value="" style="shape=cube;whiteSpace=wrap;html=1;boundedLbl=1;backgroundOutline=1;darkOpacity=0.05;darkOpacity2=0.1;size=10;direction=east;flipH=1;fillColor=#f5f5f5;strokeColor=#666666;fontColor=#333333;" vertex="1" parent="1">
          <mxGeometry x="412" y="279.13" width="35" height="40" as="geometry" />
        </mxCell>
        <mxCell id="qHnE-Tz-FGaFxfppctav-16" value="" style="shape=cube;whiteSpace=wrap;html=1;boundedLbl=1;backgroundOutline=1;darkOpacity=0.05;darkOpacity2=0.1;size=7;direction=east;flipH=1;fillColor=#e1d5e7;strokeColor=#9673a6;" vertex="1" parent="1">
          <mxGeometry x="501" y="288.96" width="33" height="20.32" as="geometry" />
        </mxCell>
        <mxCell id="189ZsUDBubX5GjFxtVKN-26" style="edgeStyle=orthogonalEdgeStyle;rounded=0;orthogonalLoop=1;jettySize=auto;html=1;exitX=0;exitY=0;exitDx=20;exitDy=8;exitPerimeter=0;" edge="1" parent="1" source="qHnE-Tz-FGaFxfppctav-17">
          <mxGeometry relative="1" as="geometry">
            <mxPoint x="600" y="300" as="targetPoint" />
          </mxGeometry>
        </mxCell>
        <mxCell id="qHnE-Tz-FGaFxfppctav-17" value="" style="shape=cube;whiteSpace=wrap;html=1;boundedLbl=1;backgroundOutline=1;darkOpacity=0.05;darkOpacity2=0.1;size=0;direction=east;flipH=1;fillColor=#dae8fc;strokeColor=#6c8ebf;rotatable=1;rotation=-90;" vertex="1" parent="1">
          <mxGeometry x="533" y="295.12" width="40" height="8" as="geometry" />
        </mxCell>
        <mxCell id="189ZsUDBubX5GjFxtVKN-30" style="edgeStyle=orthogonalEdgeStyle;rounded=0;orthogonalLoop=1;jettySize=auto;html=1;exitX=0;exitY=0;exitDx=38.5;exitDy=8;exitPerimeter=0;entryX=-0.013;entryY=0.423;entryDx=0;entryDy=0;entryPerimeter=0;" edge="1" parent="1" source="qHnE-Tz-FGaFxfppctav-18">
          <mxGeometry relative="1" as="geometry">
            <mxPoint x="637.0099999999998" y="304.2900000000001" as="targetPoint" />
          </mxGeometry>
        </mxCell>
        <mxCell id="qHnE-Tz-FGaFxfppctav-18" value="" style="shape=cube;whiteSpace=wrap;html=1;boundedLbl=1;backgroundOutline=1;darkOpacity=0.05;darkOpacity2=0.1;size=3;direction=east;flipH=1;fillColor=#dae8fc;strokeColor=#6c8ebf;rotation=-90;" vertex="1" parent="1">
          <mxGeometry x="566" y="297.13" width="74" height="8" as="geometry" />
        </mxCell>
        <mxCell id="qHnE-Tz-FGaFxfppctav-21" value="&lt;b&gt;conv2&lt;/b&gt;" style="text;html=1;strokeColor=none;fillColor=none;align=center;verticalAlign=middle;whiteSpace=wrap;rounded=0;" vertex="1" parent="1">
          <mxGeometry x="216" y="152" width="40" height="30" as="geometry" />
        </mxCell>
        <mxCell id="qHnE-Tz-FGaFxfppctav-22" value="&lt;b&gt;conv3&lt;/b&gt;" style="text;html=1;strokeColor=none;fillColor=none;align=center;verticalAlign=middle;whiteSpace=wrap;rounded=0;" vertex="1" parent="1">
          <mxGeometry x="247" y="196" width="40" height="30" as="geometry" />
        </mxCell>
        <mxCell id="qHnE-Tz-FGaFxfppctav-23" value="&lt;b&gt;conv4&lt;/b&gt;" style="text;html=1;strokeColor=none;fillColor=none;align=center;verticalAlign=middle;whiteSpace=wrap;rounded=0;" vertex="1" parent="1">
          <mxGeometry x="326" y="232.25" width="40" height="30" as="geometry" />
        </mxCell>
        <mxCell id="qHnE-Tz-FGaFxfppctav-24" value="&lt;b&gt;conv5&lt;/b&gt;" style="text;html=1;strokeColor=none;fillColor=none;align=center;verticalAlign=middle;whiteSpace=wrap;rounded=0;" vertex="1" parent="1">
          <mxGeometry x="441" y="246" width="40" height="30" as="geometry" />
        </mxCell>
        <mxCell id="qHnE-Tz-FGaFxfppctav-25" value="&lt;b&gt;Flatten&lt;/b&gt;" style="text;html=1;strokeColor=none;fillColor=none;align=center;verticalAlign=middle;whiteSpace=wrap;rounded=0;" vertex="1" parent="1">
          <mxGeometry x="546" y="240" width="40" height="30" as="geometry" />
        </mxCell>
        <mxCell id="qHnE-Tz-FGaFxfppctav-28" value="64*64*64" style="text;html=1;strokeColor=none;fillColor=none;align=center;verticalAlign=middle;whiteSpace=wrap;rounded=0;" vertex="1" parent="1">
          <mxGeometry x="117" y="426" width="99" height="30" as="geometry" />
        </mxCell>
        <mxCell id="qHnE-Tz-FGaFxfppctav-29" value="32*32*128" style="text;html=1;strokeColor=none;fillColor=none;align=center;verticalAlign=middle;whiteSpace=wrap;rounded=0;" vertex="1" parent="1">
          <mxGeometry x="204" y="365" width="99" height="30" as="geometry" />
        </mxCell>
        <mxCell id="qHnE-Tz-FGaFxfppctav-30" value="16*16*256" style="text;html=1;strokeColor=none;fillColor=none;align=center;verticalAlign=middle;whiteSpace=wrap;rounded=0;" vertex="1" parent="1">
          <mxGeometry x="275" y="332" width="99" height="30" as="geometry" />
        </mxCell>
        <mxCell id="qHnE-Tz-FGaFxfppctav-31" value="8*8*512" style="text;html=1;strokeColor=none;fillColor=none;align=center;verticalAlign=middle;whiteSpace=wrap;rounded=0;" vertex="1" parent="1">
          <mxGeometry x="391" y="317.12" width="99" height="30" as="geometry" />
        </mxCell>
        <mxCell id="qHnE-Tz-FGaFxfppctav-32" value="" style="shape=cube;whiteSpace=wrap;html=1;boundedLbl=1;backgroundOutline=1;darkOpacity=0.05;darkOpacity2=0.1;size=10;direction=east;flipH=1;fillColor=#f5f5f5;strokeColor=#666666;fontColor=#333333;" vertex="1" parent="1">
          <mxGeometry x="441" y="279.13" width="35" height="40" as="geometry" />
        </mxCell>
        <mxCell id="qHnE-Tz-FGaFxfppctav-33" value="" style="shape=cube;whiteSpace=wrap;html=1;boundedLbl=1;backgroundOutline=1;darkOpacity=0.05;darkOpacity2=0.1;size=10;direction=east;flipH=1;fillColor=#f5f5f5;strokeColor=#666666;fontColor=#333333;" vertex="1" parent="1">
          <mxGeometry x="472" y="279.12" width="35" height="40" as="geometry" />
        </mxCell>
        <mxCell id="qHnE-Tz-FGaFxfppctav-34" value="4*4*512" style="text;html=1;strokeColor=none;fillColor=none;align=center;verticalAlign=middle;whiteSpace=wrap;rounded=0;" vertex="1" parent="1">
          <mxGeometry x="474" y="342.12" width="99" height="23.88" as="geometry" />
        </mxCell>
        <mxCell id="qHnE-Tz-FGaFxfppctav-38" value="convolutional + ReLU" style="text;html=1;strokeColor=none;fillColor=none;align=left;verticalAlign=middle;whiteSpace=wrap;rounded=0;fontStyle=1" vertex="1" parent="1">
          <mxGeometry x="141" y="452.12" width="44" height="23.88" as="geometry" />
        </mxCell>
        <mxCell id="qHnE-Tz-FGaFxfppctav-39" value="max pooling" style="text;html=1;strokeColor=none;fillColor=none;align=left;verticalAlign=middle;whiteSpace=wrap;rounded=0;fontStyle=1" vertex="1" parent="1">
          <mxGeometry x="147" y="172.12" width="53" height="23.88" as="geometry" />
        </mxCell>
        <mxCell id="qHnE-Tz-FGaFxfppctav-40" value="fully connected&lt;br&gt;&amp;nbsp;+ ReLU" style="text;html=1;strokeColor=none;fillColor=none;align=left;verticalAlign=middle;whiteSpace=wrap;rounded=0;fontStyle=1" vertex="1" parent="1">
          <mxGeometry x="546" y="360.12" width="138" height="23.88" as="geometry" />
        </mxCell>
        <mxCell id="qHnE-Tz-FGaFxfppctav-42" value="max pooling" style="text;html=1;strokeColor=none;fillColor=none;align=left;verticalAlign=middle;whiteSpace=wrap;rounded=0;fontStyle=1" vertex="1" parent="1">
          <mxGeometry x="190" y="220" height="40" as="geometry" />
        </mxCell>
        <mxCell id="qHnE-Tz-FGaFxfppctav-43" value="convolutional + ReLU" style="text;html=1;strokeColor=none;fillColor=none;align=left;verticalAlign=middle;whiteSpace=wrap;rounded=0;fontStyle=1" vertex="1" parent="1">
          <mxGeometry x="214" y="395" width="44" height="23.88" as="geometry" />
        </mxCell>
        <mxCell id="qHnE-Tz-FGaFxfppctav-44" value="max pooling" style="text;html=1;strokeColor=none;fillColor=none;align=left;verticalAlign=middle;whiteSpace=wrap;rounded=0;fontStyle=1" vertex="1" parent="1">
          <mxGeometry x="280" y="230" height="40" as="geometry" />
        </mxCell>
        <mxCell id="qHnE-Tz-FGaFxfppctav-45" value="convolutional + ReLU" style="text;html=1;strokeColor=none;fillColor=none;align=left;verticalAlign=middle;whiteSpace=wrap;rounded=0;fontStyle=1" vertex="1" parent="1">
          <mxGeometry x="315" y="362" width="44" height="28" as="geometry" />
        </mxCell>
        <mxCell id="qHnE-Tz-FGaFxfppctav-46" value="convolutional + ReLU" style="text;html=1;strokeColor=none;fillColor=none;align=left;verticalAlign=middle;whiteSpace=wrap;rounded=0;fontStyle=1" vertex="1" parent="1">
          <mxGeometry x="428" y="337" width="44" height="28" as="geometry" />
        </mxCell>
        <mxCell id="qHnE-Tz-FGaFxfppctav-47" value="max pooling" style="text;html=1;strokeColor=none;fillColor=none;align=left;verticalAlign=middle;whiteSpace=wrap;rounded=0;fontStyle=1" vertex="1" parent="1">
          <mxGeometry x="388" y="249.06" width="53" height="23.88" as="geometry" />
        </mxCell>
        <mxCell id="189ZsUDBubX5GjFxtVKN-1" value="128*128*3" style="text;html=1;strokeColor=none;fillColor=none;align=center;verticalAlign=middle;whiteSpace=wrap;rounded=0;" vertex="1" parent="1">
          <mxGeometry x="41" y="516" width="99" height="30" as="geometry" />
        </mxCell>
        <mxCell id="189ZsUDBubX5GjFxtVKN-2" value="&lt;ol style=&quot;border: 0px solid rgb(217, 217, 227); box-sizing: border-box; --tw-border-spacing-x: 0; --tw-border-spacing-y: 0; --tw-translate-x: 0; --tw-translate-y: 0; --tw-rotate: 0; --tw-skew-x: 0; --tw-skew-y: 0; --tw-scale-x: 1; --tw-scale-y: 1; --tw-pan-x: ; --tw-pan-y: ; --tw-pinch-zoom: ; --tw-scroll-snap-strictness: proximity; --tw-gradient-from-position: ; --tw-gradient-via-position: ; --tw-gradient-to-position: ; --tw-ordinal: ; --tw-slashed-zero: ; --tw-numeric-figure: ; --tw-numeric-spacing: ; --tw-numeric-fraction: ; --tw-ring-inset: ; --tw-ring-offset-width: 0px; --tw-ring-offset-color: #fff; --tw-ring-color: rgba(59,130,246,.5); --tw-ring-offset-shadow: 0 0 transparent; --tw-ring-shadow: 0 0 transparent; --tw-shadow: 0 0 transparent; --tw-shadow-colored: 0 0 transparent; --tw-blur: ; --tw-brightness: ; --tw-contrast: ; --tw-grayscale: ; --tw-hue-rotate: ; --tw-invert: ; --tw-saturate: ; --tw-sepia: ; --tw-drop-shadow: ; --tw-backdrop-blur: ; --tw-backdrop-brightness: ; --tw-backdrop-contrast: ; --tw-backdrop-grayscale: ; --tw-backdrop-hue-rotate: ; --tw-backdrop-invert: ; --tw-backdrop-opacity: ; --tw-backdrop-saturate: ; --tw-backdrop-sepia: ; list-style: decimal; margin: 1.25em 0px; padding: 0px 0px 0px 1rem; counter-reset: item 0; display: flex; flex-direction: column; color: rgb(209, 213, 219); font-family: Söhne, ui-sans-serif, system-ui, -apple-system, &amp;quot;Segoe UI&amp;quot;, Roboto, Ubuntu, Cantarell, &amp;quot;Noto Sans&amp;quot;, sans-serif, &amp;quot;Helvetica Neue&amp;quot;, Arial, &amp;quot;Apple Color Emoji&amp;quot;, &amp;quot;Segoe UI Emoji&amp;quot;, &amp;quot;Segoe UI Symbol&amp;quot;, &amp;quot;Noto Color Emoji&amp;quot;; font-size: 16px; font-style: normal; font-variant-ligatures: normal; font-variant-caps: normal; font-weight: 400; letter-spacing: normal; orphans: 2; text-align: start; text-indent: 0px; text-transform: none; widows: 2; word-spacing: 0px; -webkit-text-stroke-width: 0px; background-color: rgb(68, 70, 84); text-decoration-thickness: initial; text-decoration-style: initial; text-decoration-color: initial;&quot;&gt;&lt;li style=&quot;border: 0px solid rgb(217, 217, 227); box-sizing: border-box; --tw-border-spacing-x: 0; --tw-border-spacing-y: 0; --tw-translate-x: 0; --tw-translate-y: 0; --tw-rotate: 0; --tw-skew-x: 0; --tw-skew-y: 0; --tw-scale-x: 1; --tw-scale-y: 1; --tw-pan-x: ; --tw-pan-y: ; --tw-pinch-zoom: ; --tw-scroll-snap-strictness: proximity; --tw-gradient-from-position: ; --tw-gradient-via-position: ; --tw-gradient-to-position: ; --tw-ordinal: ; --tw-slashed-zero: ; --tw-numeric-figure: ; --tw-numeric-spacing: ; --tw-numeric-fraction: ; --tw-ring-inset: ; --tw-ring-offset-width: 0px; --tw-ring-offset-color: #fff; --tw-ring-color: rgba(59,130,246,.5); --tw-ring-offset-shadow: 0 0 transparent; --tw-ring-shadow: 0 0 transparent; --tw-shadow: 0 0 transparent; --tw-shadow-colored: 0 0 transparent; --tw-blur: ; --tw-brightness: ; --tw-contrast: ; --tw-grayscale: ; --tw-hue-rotate: ; --tw-invert: ; --tw-saturate: ; --tw-sepia: ; --tw-drop-shadow: ; --tw-backdrop-blur: ; --tw-backdrop-brightness: ; --tw-backdrop-contrast: ; --tw-backdrop-grayscale: ; --tw-backdrop-hue-rotate: ; --tw-backdrop-invert: ; --tw-backdrop-opacity: ; --tw-backdrop-saturate: ; --tw-backdrop-sepia: ; margin: 0px; padding-left: 0.375em;&quot;&gt;Input shape: 128x128x3&lt;/li&gt;&lt;li style=&quot;border: 0px solid rgb(217, 217, 227); box-sizing: border-box; --tw-border-spacing-x: 0; --tw-border-spacing-y: 0; --tw-translate-x: 0; --tw-translate-y: 0; --tw-rotate: 0; --tw-skew-x: 0; --tw-skew-y: 0; --tw-scale-x: 1; --tw-scale-y: 1; --tw-pan-x: ; --tw-pan-y: ; --tw-pinch-zoom: ; --tw-scroll-snap-strictness: proximity; --tw-gradient-from-position: ; --tw-gradient-via-position: ; --tw-gradient-to-position: ; --tw-ordinal: ; --tw-slashed-zero: ; --tw-numeric-figure: ; --tw-numeric-spacing: ; --tw-numeric-fraction: ; --tw-ring-inset: ; --tw-ring-offset-width: 0px; --tw-ring-offset-color: #fff; --tw-ring-color: rgba(59,130,246,.5); --tw-ring-offset-shadow: 0 0 transparent; --tw-ring-shadow: 0 0 transparent; --tw-shadow: 0 0 transparent; --tw-shadow-colored: 0 0 transparent; --tw-blur: ; --tw-brightness: ; --tw-contrast: ; --tw-grayscale: ; --tw-hue-rotate: ; --tw-invert: ; --tw-saturate: ; --tw-sepia: ; --tw-drop-shadow: ; --tw-backdrop-blur: ; --tw-backdrop-brightness: ; --tw-backdrop-contrast: ; --tw-backdrop-grayscale: ; --tw-backdrop-hue-rotate: ; --tw-backdrop-invert: ; --tw-backdrop-opacity: ; --tw-backdrop-saturate: ; --tw-backdrop-sepia: ; margin: 0px; padding-left: 0.375em;&quot;&gt;Stage 1 output shape: 64x64x64&lt;/li&gt;&lt;li style=&quot;border: 0px solid rgb(217, 217, 227); box-sizing: border-box; --tw-border-spacing-x: 0; --tw-border-spacing-y: 0; --tw-translate-x: 0; --tw-translate-y: 0; --tw-rotate: 0; --tw-skew-x: 0; --tw-skew-y: 0; --tw-scale-x: 1; --tw-scale-y: 1; --tw-pan-x: ; --tw-pan-y: ; --tw-pinch-zoom: ; --tw-scroll-snap-strictness: proximity; --tw-gradient-from-position: ; --tw-gradient-via-position: ; --tw-gradient-to-position: ; --tw-ordinal: ; --tw-slashed-zero: ; --tw-numeric-figure: ; --tw-numeric-spacing: ; --tw-numeric-fraction: ; --tw-ring-inset: ; --tw-ring-offset-width: 0px; --tw-ring-offset-color: #fff; --tw-ring-color: rgba(59,130,246,.5); --tw-ring-offset-shadow: 0 0 transparent; --tw-ring-shadow: 0 0 transparent; --tw-shadow: 0 0 transparent; --tw-shadow-colored: 0 0 transparent; --tw-blur: ; --tw-brightness: ; --tw-contrast: ; --tw-grayscale: ; --tw-hue-rotate: ; --tw-invert: ; --tw-saturate: ; --tw-sepia: ; --tw-drop-shadow: ; --tw-backdrop-blur: ; --tw-backdrop-brightness: ; --tw-backdrop-contrast: ; --tw-backdrop-grayscale: ; --tw-backdrop-hue-rotate: ; --tw-backdrop-invert: ; --tw-backdrop-opacity: ; --tw-backdrop-saturate: ; --tw-backdrop-sepia: ; margin: 0px; padding-left: 0.375em;&quot;&gt;Stage 2 output shape: 32x32x128&lt;/li&gt;&lt;li style=&quot;border: 0px solid rgb(217, 217, 227); box-sizing: border-box; --tw-border-spacing-x: 0; --tw-border-spacing-y: 0; --tw-translate-x: 0; --tw-translate-y: 0; --tw-rotate: 0; --tw-skew-x: 0; --tw-skew-y: 0; --tw-scale-x: 1; --tw-scale-y: 1; --tw-pan-x: ; --tw-pan-y: ; --tw-pinch-zoom: ; --tw-scroll-snap-strictness: proximity; --tw-gradient-from-position: ; --tw-gradient-via-position: ; --tw-gradient-to-position: ; --tw-ordinal: ; --tw-slashed-zero: ; --tw-numeric-figure: ; --tw-numeric-spacing: ; --tw-numeric-fraction: ; --tw-ring-inset: ; --tw-ring-offset-width: 0px; --tw-ring-offset-color: #fff; --tw-ring-color: rgba(59,130,246,.5); --tw-ring-offset-shadow: 0 0 transparent; --tw-ring-shadow: 0 0 transparent; --tw-shadow: 0 0 transparent; --tw-shadow-colored: 0 0 transparent; --tw-blur: ; --tw-brightness: ; --tw-contrast: ; --tw-grayscale: ; --tw-hue-rotate: ; --tw-invert: ; --tw-saturate: ; --tw-sepia: ; --tw-drop-shadow: ; --tw-backdrop-blur: ; --tw-backdrop-brightness: ; --tw-backdrop-contrast: ; --tw-backdrop-grayscale: ; --tw-backdrop-hue-rotate: ; --tw-backdrop-invert: ; --tw-backdrop-opacity: ; --tw-backdrop-saturate: ; --tw-backdrop-sepia: ; margin: 0px; padding-left: 0.375em;&quot;&gt;Stage 3 output shape: 16x16x256&lt;/li&gt;&lt;li style=&quot;border: 0px solid rgb(217, 217, 227); box-sizing: border-box; --tw-border-spacing-x: 0; --tw-border-spacing-y: 0; --tw-translate-x: 0; --tw-translate-y: 0; --tw-rotate: 0; --tw-skew-x: 0; --tw-skew-y: 0; --tw-scale-x: 1; --tw-scale-y: 1; --tw-pan-x: ; --tw-pan-y: ; --tw-pinch-zoom: ; --tw-scroll-snap-strictness: proximity; --tw-gradient-from-position: ; --tw-gradient-via-position: ; --tw-gradient-to-position: ; --tw-ordinal: ; --tw-slashed-zero: ; --tw-numeric-figure: ; --tw-numeric-spacing: ; --tw-numeric-fraction: ; --tw-ring-inset: ; --tw-ring-offset-width: 0px; --tw-ring-offset-color: #fff; --tw-ring-color: rgba(59,130,246,.5); --tw-ring-offset-shadow: 0 0 transparent; --tw-ring-shadow: 0 0 transparent; --tw-shadow: 0 0 transparent; --tw-shadow-colored: 0 0 transparent; --tw-blur: ; --tw-brightness: ; --tw-contrast: ; --tw-grayscale: ; --tw-hue-rotate: ; --tw-invert: ; --tw-saturate: ; --tw-sepia: ; --tw-drop-shadow: ; --tw-backdrop-blur: ; --tw-backdrop-brightness: ; --tw-backdrop-contrast: ; --tw-backdrop-grayscale: ; --tw-backdrop-hue-rotate: ; --tw-backdrop-invert: ; --tw-backdrop-opacity: ; --tw-backdrop-saturate: ; --tw-backdrop-sepia: ; margin: 0px; padding-left: 0.375em;&quot;&gt;Stage 4 output shape: 8x8x512&lt;/li&gt;&lt;li style=&quot;border: 0px solid rgb(217, 217, 227); box-sizing: border-box; --tw-border-spacing-x: 0; --tw-border-spacing-y: 0; --tw-translate-x: 0; --tw-translate-y: 0; --tw-rotate: 0; --tw-skew-x: 0; --tw-skew-y: 0; --tw-scale-x: 1; --tw-scale-y: 1; --tw-pan-x: ; --tw-pan-y: ; --tw-pinch-zoom: ; --tw-scroll-snap-strictness: proximity; --tw-gradient-from-position: ; --tw-gradient-via-position: ; --tw-gradient-to-position: ; --tw-ordinal: ; --tw-slashed-zero: ; --tw-numeric-figure: ; --tw-numeric-spacing: ; --tw-numeric-fraction: ; --tw-ring-inset: ; --tw-ring-offset-width: 0px; --tw-ring-offset-color: #fff; --tw-ring-color: rgba(59,130,246,.5); --tw-ring-offset-shadow: 0 0 transparent; --tw-ring-shadow: 0 0 transparent; --tw-shadow: 0 0 transparent; --tw-shadow-colored: 0 0 transparent; --tw-blur: ; --tw-brightness: ; --tw-contrast: ; --tw-grayscale: ; --tw-hue-rotate: ; --tw-invert: ; --tw-saturate: ; --tw-sepia: ; --tw-drop-shadow: ; --tw-backdrop-blur: ; --tw-backdrop-brightness: ; --tw-backdrop-contrast: ; --tw-backdrop-grayscale: ; --tw-backdrop-hue-rotate: ; --tw-backdrop-invert: ; --tw-backdrop-opacity: ; --tw-backdrop-saturate: ; --tw-backdrop-sepia: ; margin: 0px; padding-left: 0.375em;&quot;&gt;Stage 5 output shape: 4x4x512&lt;/li&gt;&lt;/ol&gt;" style="text;whiteSpace=wrap;html=1;" vertex="1" parent="1">
          <mxGeometry x="540" y="800" width="290" height="180" as="geometry" />
        </mxCell>
        <mxCell id="189ZsUDBubX5GjFxtVKN-6" value="1*8196" style="text;html=1;strokeColor=none;fillColor=none;align=center;verticalAlign=middle;whiteSpace=wrap;rounded=0;" vertex="1" parent="1">
          <mxGeometry x="516.5" y="320" width="99" height="26.12" as="geometry" />
        </mxCell>
        <mxCell id="189ZsUDBubX5GjFxtVKN-8" value="1*128" style="text;html=1;strokeColor=none;fillColor=none;align=center;verticalAlign=middle;whiteSpace=wrap;rounded=0;" vertex="1" parent="1">
          <mxGeometry x="549.5" y="336.24" width="99" height="23.88" as="geometry" />
        </mxCell>
        <mxCell id="189ZsUDBubX5GjFxtVKN-13" style="edgeStyle=orthogonalEdgeStyle;rounded=0;orthogonalLoop=1;jettySize=auto;html=1;exitX=0;exitY=0;exitDx=20;exitDy=0;exitPerimeter=0;" edge="1" parent="1">
          <mxGeometry relative="1" as="geometry">
            <mxPoint x="535" y="300" as="sourcePoint" />
            <mxPoint x="546" y="300" as="targetPoint" />
          </mxGeometry>
        </mxCell>
        <mxCell id="189ZsUDBubX5GjFxtVKN-32" value="" style="rounded=0;whiteSpace=wrap;html=1;" vertex="1" parent="1">
          <mxGeometry x="675" y="214.12" width="30" height="30.88" as="geometry" />
        </mxCell>
        <mxCell id="189ZsUDBubX5GjFxtVKN-37" value="" style="rounded=0;whiteSpace=wrap;html=1;" vertex="1" parent="1">
          <mxGeometry x="676" y="294.12" width="30" height="30.88" as="geometry" />
        </mxCell>
        <mxCell id="189ZsUDBubX5GjFxtVKN-42" value="" style="edgeStyle=orthogonalEdgeStyle;rounded=0;orthogonalLoop=1;jettySize=auto;html=1;" edge="1" parent="1" target="189ZsUDBubX5GjFxtVKN-39">
          <mxGeometry relative="1" as="geometry">
            <mxPoint x="692" y="365.4999999999999" as="sourcePoint" />
          </mxGeometry>
        </mxCell>
        <mxCell id="189ZsUDBubX5GjFxtVKN-39" value="" style="rounded=0;whiteSpace=wrap;html=1;" vertex="1" parent="1">
          <mxGeometry x="676" y="380" width="34" height="30" as="geometry" />
        </mxCell>
        <mxCell id="189ZsUDBubX5GjFxtVKN-49" value="" style="rounded=0;whiteSpace=wrap;html=1;" vertex="1" parent="1">
          <mxGeometry x="676" y="253.12" width="30" height="30.88" as="geometry" />
        </mxCell>
        <mxCell id="189ZsUDBubX5GjFxtVKN-50" value="" style="rounded=0;whiteSpace=wrap;html=1;" vertex="1" parent="1">
          <mxGeometry x="677" y="333.12" width="30" height="30.88" as="geometry" />
        </mxCell>
        <mxCell id="189ZsUDBubX5GjFxtVKN-55" value="CNN MODEL" style="text;html=1;strokeColor=none;fillColor=none;align=left;verticalAlign=middle;whiteSpace=wrap;rounded=0;fontStyle=1" vertex="1" parent="1">
          <mxGeometry x="287" y="516" width="123" height="28" as="geometry" />
        </mxCell>
        <mxCell id="189ZsUDBubX5GjFxtVKN-56" value="LSTM MODEL" style="text;html=1;strokeColor=none;fillColor=none;align=left;verticalAlign=middle;whiteSpace=wrap;rounded=0;fontStyle=1" vertex="1" parent="1">
          <mxGeometry x="640" y="456" width="123" height="28" as="geometry" />
        </mxCell>
      </root>
    </mxGraphModel>
  </diagram>
</mxfile>
